<?xml version="1.0" standalone="no"?>
<!DOCTYPE svg PUBLIC "-//W3C//DTD SVG 20010904//EN"
 "http://www.w3.org/TR/2001/REC-SVG-20010904/DTD/svg10.dtd">
<svg version="1.0" xmlns="http://www.w3.org/2000/svg"
 width="599.000000pt" height="197.000000pt" viewBox="0 0 599.000000 197.000000"
 preserveAspectRatio="xMidYMid meet">

<g transform="translate(0.000000,197.000000) scale(0.100000,-0.100000)"
fill="#000000" stroke="none">
<path d="M0 985 l0 -985 2995 0 2995 0 0 985 0 985 -2995 0 -2995 0 0 -985z
m2030 239 l0 -125 83 125 82 125 78 1 c42 0 77 -3 77 -6 0 -3 -34 -57 -75
-120 -41 -63 -75 -120 -75 -126 0 -7 38 -108 85 -225 47 -117 85 -215 85 -218
0 -3 -36 -5 -79 -5 l-79 0 -30 73 c-17 39 -40 99 -53 132 -33 90 -37 93 -70
43 -27 -40 -29 -50 -29 -146 l0 -103 -72 3 -73 3 -3 348 -2 347 75 0 75 0 0
-126z m650 -144 l0 -269 128 -3 127 -3 0 -75 0 -75 -207 -3 -208 -2 0 350 0
350 80 0 80 0 0 -270z m840 190 l0 -80 -140 0 -140 0 0 -55 0 -55 100 0 100 0
0 -80 0 -80 -100 0 -100 0 0 -55 0 -55 140 0 140 0 0 -80 0 -80 -220 0 -220 0
0 350 0 350 220 0 220 0 0 -80z m563 64 c58 -28 71 -63 75 -197 6 -174 -2
-220 -45 -263 l-35 -35 36 -90 c20 -49 36 -91 36 -94 0 -3 -37 -5 -83 -5 l-84
0 -37 95 -38 95 -44 0 -44 0 0 -95 0 -95 -80 0 -80 0 0 350 0 350 195 0 c158
0 201 -3 228 -16z m647 -64 l0 -80 -135 0 -135 0 0 -55 0 -55 100 0 100 0 0
-80 0 -80 -100 0 -100 0 0 -55 0 -55 135 0 135 0 0 -80 0 -80 -220 0 -220 0 0
350 0 350 220 0 220 0 0 -80z m393 -97 l85 -178 1 178 1 177 80 0 80 0 0 -350
0 -350 -81 0 -80 0 -84 173 -83 172 -1 -172 -1 -173 -80 0 -80 0 0 350 0 350
78 0 79 0 86 -177z m-3952 56 c-13 -5 -30 -17 -37 -27 -8 -9 -14 -12 -14 -5 0
15 39 43 60 42 8 0 4 -5 -9 -10z m43 -15 c3 -8 2 -12 -4 -9 -6 3 -10 10 -10
16 0 14 7 11 14 -7z m-8 -68 c-25 -38 -20 -61 16 -77 18 -8 46 -34 63 -59 25
-36 56 -58 157 -115 165 -92 178 -102 178 -126 0 -17 -4 -19 -17 -13 -10 5
-204 9 -431 9 -226 0 -412 3 -412 7 0 16 45 47 175 123 110 63 141 86 158 117
12 20 37 45 55 55 18 10 32 25 32 36 0 21 31 79 38 72 3 -2 -3 -16 -12 -29z"/>
<path d="M3820 1095 l0 -95 79 0 c44 0 83 4 86 10 9 14 9 155 1 169 -4 7 -38
11 -87 11 l-79 0 0 -95z"/>
<path d="M1020 899 c-91 -49 -170 -95 -177 -102 -10 -9 62 -11 320 -9 183 1
341 4 352 5 12 1 -46 39 -149 97 -93 52 -172 96 -175 97 -3 1 -80 -38 -171
-88z"/>
</g>
</svg>
